<?xml version="1.0" encoding="iso-8859-1"?>
<!-- Generator: Adobe Illustrator 15.1.0, SVG Export Plug-In . SVG Version: 6.00 Build 0)  -->
<!DOCTYPE svg PUBLIC "-//W3C//DTD SVG 1.1//EN" "http://www.w3.org/Graphics/SVG/1.1/DTD/svg11.dtd">
<svg version="1.1" xmlns="http://www.w3.org/2000/svg" xmlns:xlink="http://www.w3.org/1999/xlink" x="0px" y="0px" width="60px"
	 height="95px" viewBox="-10 -10 80 115" style="enable-background:new 0 0 60 95;" xml:space="preserve">
<g id="SHAPE_8">
	<g id="tl">
		<polygon points="0,39.407 0,2.656 14.086,16.549 14.086,35.813 5.282,44.831 		"/>
	</g>
	<g id="bl">
		<polygon points="14.086,58.934 14.086,78.066 0,92.15 0,55.401 5.282,50.113 		"/>
	</g>
	<g id="t">
		<polygon points="57.427,0 43.341,14.086 16.795,14.086 2.709,0 		"/>
	</g>
	<g id="b">
		<polygon points="57.427,94.808 2.709,94.808 16.795,80.722 43.341,80.722 		"/>
	</g>
	<g id="m">
		<polygon points="45.102,40.361 52.145,47.404 45.102,54.447 15.034,54.447 7.991,47.404 15.034,40.361 		"/>
	</g>
	<g id="tr">
		<polygon points="45.914,35.855 45.914,16.68 60,2.789 60,39.424 54.718,44.831 		"/>
	</g>
	<g id="br">
		<polygon points="60,55.385 60,92.019 45.914,77.933 45.914,58.891 54.718,50.113 		"/>
	</g>
</g>
<g id="SHAPE_X">
	<g id="tl">
		<polygon points="20.313,44.851 0,13.834 0,0.018 8.27,0.012 27.565,29.227 27.494,44.851 		"/>
	</g>
	<g id="bl">
		<polygon points="27.494,50.131 27.439,65.67 8.3,94.762 0,94.826 0,81.011 20.316,50.131 		"/>
	</g>
	<g id="br">
		<polygon points="39.955,50.131 60,81.011 60,94.826 51.747,94.909 32.724,65.605 32.776,50.131 		"/>
	</g>
	<g id="tr">
		<polygon points="32.776,44.849 32.77,29.269 51.845,0 60,0.018 60,13.834 39.955,44.849 		"/>
	</g>
</g>
</svg>
